<?xml version="1.0" encoding="iso-8859-1"?>
<!-- Generator: Adobe Illustrator 19.0.0, SVG Export Plug-In . SVG Version: 6.00 Build 0)  -->
<svg version="1.1" id="Layer_1" xmlns="http://www.w3.org/2000/svg" xmlns:xlink="http://www.w3.org/1999/xlink" x="0px" y="0px"
	 viewBox="0 0 512 512" style="enable-background:new 0 0 512 512;" xml:space="preserve">
<g>
	<path style="fill:#2D527C;" d="M356.617,246.555H155.383c-5.39,0-10.313-3.055-12.708-7.884c-2.394-4.83-1.845-10.598,1.418-14.888
		L244.712,91.502c4.74-6.235,13.641-7.447,19.876-2.702c6.235,4.742,7.445,13.641,2.702,19.876l-83.297,109.51h172.624
		c7.832,0,14.184,6.35,14.184,14.184C370.802,240.205,364.451,246.555,356.617,246.555z"/>
	<path style="fill:#2D527C;" d="M444.565,457.235h-53.104c-7.833,0-14.184-6.35-14.184-14.184s6.352-14.184,14.184-14.184h24.495
		L277.281,246.555H234.72L96.046,428.867h224.73c7.833,0,14.184,6.35,14.184,14.184s-6.352,14.184-14.184,14.184H67.435
		c-5.39,0-10.313-3.055-12.708-7.884c-2.394-4.83-1.845-10.598,1.418-14.888l160.253-210.68c2.682-3.526,6.858-5.597,11.289-5.597
		h56.626c4.431,0,8.607,2.069,11.289,5.597l160.251,210.68c3.264,4.289,3.813,10.058,1.418,14.888
		C454.88,454.181,449.955,457.235,444.565,457.235z"/>
</g>
<polygon style="fill:#CEE8FA;" points="320.136,232.371 191.864,232.371 111.409,338.145 400.593,338.145 "/>
<path style="fill:#2D527C;" d="M400.591,352.329H111.409c-5.39,0-10.313-3.055-12.708-7.884c-2.394-4.828-1.845-10.598,1.418-14.888
	l80.455-105.774c2.682-3.526,6.858-5.597,11.289-5.597h128.273c4.431,0,8.607,2.069,11.289,5.597l80.455,105.774
	c3.264,4.289,3.813,10.059,1.418,14.888C410.906,349.274,405.981,352.329,400.591,352.329z M140.018,323.961h231.964l-58.878-77.406
	H198.895L140.018,323.961z"/>
<polygon style="fill:#CEE8FA;" points="256.001,136.464 208.085,161.655 217.235,108.299 178.472,70.514 232.042,62.728 
	256.001,14.184 279.959,62.728 333.53,70.514 294.766,108.299 303.916,161.655 "/>
<path style="fill:#2D527C;" d="M208.087,175.84c-2.94,0-5.868-0.913-8.339-2.709c-4.367-3.173-6.555-8.552-5.644-13.874
	l7.891-46.006l-33.424-32.582c-3.867-3.769-5.257-9.406-3.589-14.54c1.669-5.135,6.108-8.876,11.451-9.654l46.191-6.712
	L243.28,7.905c2.39-4.84,7.32-7.905,12.72-7.905c5.4,0,10.33,3.065,12.72,7.906l20.656,41.857l46.191,6.712
	c5.345,0.776,9.781,4.519,11.451,9.654c1.668,5.135,0.277,10.771-3.589,14.54l-33.424,32.582l7.732,45.084
	c0.255,1.064,0.389,2.176,0.389,3.319c0,7.831-6.347,14.181-14.177,14.184c-2.323,0.035-4.549-0.532-6.635-1.63l-41.316-21.72
	l-41.316,21.72C212.61,175.301,210.343,175.84,208.087,175.84z M256.001,122.279c2.268,0,4.535,0.543,6.6,1.63l22.478,11.817
	l-4.292-25.029c-0.789-4.601,0.738-9.296,4.079-12.554l18.184-17.726l-25.13-3.651c-4.621-0.671-8.614-3.573-10.681-7.759
	l-11.238-22.773l-11.238,22.773c-2.067,4.186-6.059,7.088-10.681,7.759l-25.13,3.651l18.184,17.726
	c3.342,3.258,4.868,7.953,4.079,12.554l-4.292,25.029l22.478-11.817C251.466,122.822,253.733,122.279,256.001,122.279z"/>
<rect x="191.232" y="443.056" style="fill:#CEE8FA;" width="129.544" height="54.764"/>
<path style="fill:#2D527C;" d="M320.776,512h-129.55c-7.833,0-14.184-6.35-14.184-14.184v-54.764
	c0-7.834,6.352-14.184,14.184-14.184h129.55c7.833,0,14.184,6.35,14.184,14.184v54.764C334.96,505.65,328.608,512,320.776,512z
	 M205.41,483.632h101.181v-26.395H205.41V483.632z"/>
<g>
</g>
<g>
</g>
<g>
</g>
<g>
</g>
<g>
</g>
<g>
</g>
<g>
</g>
<g>
</g>
<g>
</g>
<g>
</g>
<g>
</g>
<g>
</g>
<g>
</g>
<g>
</g>
<g>
</g>
</svg>
